<?xml version="1.0" encoding="UTF-8" standalone="no"?>
<!DOCTYPE svg PUBLIC "-//W3C//DTD SVG 1.1//EN" "http://www.w3.org/Graphics/SVG/1.1/DTD/svg11.dtd">
<svg width="100%" height="100%" viewBox="0 0 122 40" version="1.1" xmlns="http://www.w3.org/2000/svg"
     xml:space="preserve"
     style="fill-rule:evenodd;clip-rule:evenodd;stroke-linejoin:round;stroke-miterlimit:2;">
    <g transform="matrix(1,0,0,1,-14.1642,0)">
        <g transform="matrix(0.177382,0,0,0.177382,-8.87065,-63.8102)">
            <path d="M175.621,581.424C147.148,581.424 129.86,568.712 129.86,535.663L129.86,359.733L171.554,359.733L171.554,528.544C171.554,539.984 176.892,543.798 186.807,543.798L203.623,543.798L203.623,581.424L175.621,581.424Z"
                  style="fill:rgb(255,200,38);fill-rule:nonzero;"/>
        </g>
        <g transform="matrix(0.177382,0,0,0.177382,-8.87065,-63.8102)">
            <path d="M280.396,584.475C237.94,584.475 217.347,561.595 217.347,520.918L217.347,445.157L259.04,445.157L259.04,520.918C259.04,537.951 264.125,546.849 280.65,546.849C296.413,546.849 302.768,538.459 302.768,520.918L302.768,445.157L344.461,445.157L344.461,520.918C344.461,565.154 320.056,584.475 280.396,584.475Z"
                  style="fill:rgb(255,200,38);fill-rule:nonzero;"/>
        </g>
        <g transform="matrix(0.177382,0,0,0.177382,-8.87065,-63.8102)">
            <path d="M429.37,584.475C386.913,584.475 366.321,561.595 366.321,520.918L366.321,445.157L408.014,445.157L408.014,520.918C408.014,537.951 413.099,546.849 429.624,546.849C445.386,546.849 451.742,538.459 451.742,520.918L451.742,445.157L493.435,445.157L493.435,520.918C493.435,565.154 469.029,584.475 429.37,584.475Z"
                  style="fill:rgb(255,200,38);fill-rule:nonzero;"/>
        </g>
        <g transform="matrix(0.177382,0,0,0.177382,-8.87065,-63.8102)">
            <path d="M748.419,397.559C732.403,397.559 721.979,407.728 721.979,431.118C721.979,454.507 732.911,464.676 748.419,464.676C763.927,464.676 774.604,453.998 774.604,431.118C774.604,406.966 765.961,397.559 748.419,397.559ZM748.674,502.302C706.217,502.302 680.54,476.624 680.54,431.118C680.54,384.085 708.759,359.933 748.674,359.933C791.384,359.933 815.79,386.119 815.79,431.118C815.79,478.15 788.587,502.302 748.674,502.302Z"
                  style="fill:rgb(87,197,200);fill-rule:nonzero;"/>
        </g>
        <g transform="matrix(0.177382,0,0,0.177382,-8.87065,-63.8102)">
            <path d="M608.294,485.411L624.791,501.922L624.502,501.922L624.502,512.78C624.502,534.643 608.741,543.542 594.249,543.542C568.826,543.542 554.844,527.526 554.844,490.662C554.844,453.036 574.165,444.138 603.91,444.138L656.027,444.138L656.027,402.444L597.554,402.444C540.353,402.444 507.049,429.647 507.049,490.662C507.049,547.863 536.031,585.235 595.266,585.235C615.78,585.235 653.349,579.196 665.984,543.151L679.565,556.744L679.596,486.033L608.294,485.411Z"
                  style="fill:rgb(87,197,200);fill-rule:nonzero;"/>
        </g>
    </g>
</svg>
